<?xml version="1.0" encoding="utf-8"?>
<!-- Generator: Adobe Illustrator 18.1.1, SVG Export Plug-In . SVG Version: 6.00 Build 0)  -->
<svg version="1.1" xmlns="http://www.w3.org/2000/svg" xmlns:xlink="http://www.w3.org/1999/xlink" x="0px" y="0px"
	 viewBox="0 0 1000 1080" enable-background="new 0 0 1000 1080" xml:space="preserve">
<g id="kiri_normal" display="none">
	<g id="body_1_" display="inline">
		<path fill="#EA7824" d="M749.2,745.7c43.8,175.6-122.4,327.8-273.4,327.8S166.4,917.2,202.5,745.7
			c42.5-202,172.7-328.1,273.4-327.8C575.2,418.2,704.1,565.1,749.2,745.7z"/>
		<path fill="#D36922" d="M290.6,690.1c-18.2,45.2-41.7,87.3-61.8,123.6c-8.1,14.5-27.5,32.7-31.5,16.3"/>
		<path fill="#EA7824" d="M264.3,737.9c-49.1,93.7-108.9,158.9-133.5,145.7s-4.9-99.8,44.2-193.5s108.9-158.9,133.5-145.7
			C333.2,557.6,313.4,644.2,264.3,737.9z"/>
		<path fill="#D36922" d="M789.3,783.3c3.6-1.2,7.5-1.9,11.5-2.1c8.6-0.5,14.5-8.7,11.6-16.9c-7.3-20-16.2-41.2-26.7-62.8
			C739.2,606,680.2,539.3,653.8,552.4c-26.3,13.1-10,101,36.4,196.5c12.5,25.8,26,49.4,39.5,70c5.4,8.2,23,21,25,11.4
			C758.1,813.8,770,789.6,789.3,783.3z"/>
		<path fill="#EA7824" d="M692,739.9c52.8,92,116.1,154.5,141.5,139.7c25.4-14.9,3.2-101.5-49.6-193.5S667.8,531.5,642.4,546.4
			C617,561.3,639.2,647.9,692,739.9z"/>
		<path fill="#FFF5F1" d="M711.6,848.9c37.5,120.3-104.9,224.6-234.3,224.6S212.1,966.5,243,848.9c36.3-138.3,148-224.8,234.3-224.6
			C562.5,624.5,673,725.2,711.6,848.9z"/>
		<path opacity="0.75" fill="#C46627" enable-background="new    " d="M666.6,466.5c0,63.7-63.5,111.7-179.5,121.4
			c-108.2,9.1-194.9-49.4-194.9-113.1s52.6-117.6,194.9-117.6S666.6,402.7,666.6,466.5z"/>
	</g>
	<g id="cabesa" display="inline">
		<path id="cabeza_1_" fill="#EA7824" d="M734.8,282.5c-3.2-5-5.1-10.7-5.9-16.6C712.7,153,607,65.8,478.8,65.8
			c-130,0-236.9,89.8-250.7,205.2c-0.4,3.6-1.5,7.1-3.3,10.3c-8.6,14.9-35.7,61.5-52.8,91.1c-8.9,15.3-6.8,34.6,5.1,47.7
			c24.4,26.7,67.1,70.4,103.4,91.4c78.1,45.2,155.6,66,198.3,64.4c51.6-1.9,133.7-24.7,193.8-59C701,500.6,754,452.5,785,423.4
			c14.2-13.3,16.9-34.9,6.4-51.4L734.8,282.5z"/>
		<path id="vaina_blanca_de_los_lados_1_" fill="#FFFFFF" d="M173.2,379.1c-11.3,4.6-7.8,25.7-0.7,35.7c6.7,9.3,16.5,21.8,30,35.5
			c50.1,51.2,144.6,121.4,270.5,123.3c159.6,2.4,279.9-111,318.3-155.8c6.8-8,11.2-24.9,0.7-25.3c-47.9-1.8-206.1,35-253.9,52.6
			C398.5,496.8,239.6,352.2,173.2,379.1z"/>
	</g>
	<g id="ocico" display="inline">
		<path fill="#EDDFD9" d="M566.4,473c7.9,47.8-62.4,87.8-93.5,87.7c-41.8-0.1-101.8-39.9-93.5-87.7c8.2-47.8,54.4-87.7,93.5-87.7
			C514.1,385.3,558.4,424.4,566.4,473z"/>
		<path fill="#FFFFFF" d="M566.4,464.1c7.9,49.6-62.4,91-93.5,91c-41.8-0.1-101.8-41.4-93.5-91c8.2-49.6,54.4-91,93.5-91
			C514.1,373.1,558.4,413.7,566.4,464.1z"/>
		<path fill="#5E2200" d="M433.2,412.1c4.6-8.4,30.1-13.1,43.8-13.1c19.7,0.1,37.3,4.9,44.3,15.1c5.5,8-0.1,25.8-7.5,37.9
			c-8.1,13.4-22.8,32-36.7,32c-16.8,0-34.9-27.3-40.1-36.4C430,435.2,428.1,421.4,433.2,412.1z"/>
	</g>
	<g id="CEJAS" display="inline">
		<path fill="none" stroke="#F2F2F2" stroke-width="20" stroke-linecap="round" stroke-miterlimit="10" d="M330.1,232.7
			c0,0,38.3-35.7,66.1-5.3"/>
		<path fill="none" stroke="#F2F2F2" stroke-width="20" stroke-linecap="round" stroke-miterlimit="10" d="M612.6,232.5
			c0,0-38.6-35.4-66.1-4.8"/>
	</g>
	<g id="orejas" display="inline">
		<path fill="#F4F1ED" stroke="#EA7824" stroke-width="20" stroke-miterlimit="10" d="M317.9,155.8l-50.5,58.6
			c-3.6,4.2-10.4,2.2-11.2-3.3c0,0-6.1-28.6-8.3-46c-1.1-8.8-9.2-73-8.8-78.7c0.7-10.2-4.3-44.6,3.3-58.8c1.4-2.6,5.5-7,8.1-5.5
			c13.8-0.4,59.8,20.9,64,23.1c14,7.6,35.3,23.5,33.6,22.6L387.3,98c2.8,1.2-0.1,10.4-2.5,12.3l-64.6,43.4
			C319.3,154.3,318.6,155,317.9,155.8z"/>
		<path fill="#F4F1ED" stroke="#EA7824" stroke-width="20" stroke-miterlimit="10" d="M640.7,156.7l48.3,57.5c3.5,4.1,10.1,2,11-3.5
			c0,0,6.5-28.6,8.9-45.9c1.2-8.8,10.2-72.9,9.9-78.6c-0.5-10.2,5-44.5-2.2-58.5c-1.3-2.6-5.3-6.8-7.8-5.4
			c-13.4-0.1-58.7,21.8-62.9,24.2c-13.8,7.8-34.8,24-33.2,23.1L574,100.3c-2.8,1.3-0.1,10.3,2.3,12.2l62.4,42.1
			C639.4,155.2,640.1,155.9,640.7,156.7z"/>
	</g>
	<g id="blush" display="inline">
		<ellipse fill="#FF7893" cx="292.2" cy="415.9" rx="37.9" ry="18.8"/>
		<ellipse fill="#FF7893" cx="640.7" cy="415.9" rx="37.9" ry="18.8"/>
	</g>
	<g id="OJOS" display="inline">
		<ellipse fill="#2E0700" cx="356.2" cy="331.4" rx="34.4" ry="68.3"/>
		<ellipse fill="#2E0700" cx="584.5" cy="331.4" rx="34.4" ry="68.3"/>
		<ellipse fill="#FFFFFF" cx="371" cy="296.6" rx="7.9" ry="8"/>
		<ellipse fill="#FFFFFF" cx="599.3" cy="296.6" rx="7.9" ry="8"/>
	</g>
</g>
<g id="kiri_happy">
	<g>
		<path fill="#EA7824" d="M742.8,748.3C785.9,925.9,622.2,1080,473.5,1080S168.7,921.8,204.2,748.3
			c41.8-204.3,170.1-332,269.3-331.7C571.4,416.9,698.4,565.6,742.8,748.3z"/>
		<path fill="#D36922" d="M291,692c-18,45.7-41,88.3-60.9,125c-7.9,14.7-27.1,33.1-31,16.5"/>
		<path fill="#EA7824" d="M265.2,740.3c-48.3,94.8-107.2,160.8-131.5,147.4s-4.8-101,43.6-195.8s107.2-160.8,131.5-147.4
			S313.5,645.6,265.2,740.3z"/>
		<path fill="#D36922" d="M782.3,786.3c3.6-1.2,7.4-1.9,11.3-2.2c8.5-0.5,14.3-8.8,11.4-17.1c-7.2-20.3-16-41.7-26.3-63.6
			C732.9,607,674.8,539.4,648.9,552.7c-25.9,13.2-9.9,102.2,35.9,198.8c12.4,26.1,25.6,50,38.9,70.8c5.3,8.3,22.6,21.3,24.6,11.5
			C751.6,817.1,763.3,792.7,782.3,786.3z"/>
		<path fill="#EA7824" d="M686.4,742.4c52,93.1,114.4,156.4,139.4,141.3S829,781,777,688S662.6,531.6,637.6,546.6
			C612.6,561.7,634.5,649.3,686.4,742.4z"/>
		<path fill="#FFF5F1" d="M705.8,852.7c37,121.7-103.3,227.3-230.8,227.3S213.7,971.6,244.1,852.7C280,712.7,390,625.3,474.9,625.4
			C558.9,625.6,667.7,727.5,705.8,852.7z"/>
	</g>
	<path fill="#C46627" d="M661.4,465.7c0,64.5-62.5,113-176.8,122.9c-106.6,9.2-192-50-192-114.5s51.8-119,192-119
		S661.4,401.3,661.4,465.7z"/>
	<g>
		<path id="cabeza_5_" fill="#EA7824" d="M728.6,279.7c-3.1-5.1-5-10.8-5.8-16.8C706.9,148.6,602.7,60.3,476.5,60.3
			c-128.1,0-233.4,90.9-246.9,207.6c-0.4,3.7-1.5,7.2-3.3,10.4c-8.5,15.1-35.1,62.3-52,92.1c-8.7,15.5-6.7,35,5,48.2
			c24,27,66.1,71.2,101.9,92.5c76.9,45.8,153.2,66.8,195.3,65.2c50.8-1.9,131.7-25,190.9-59.6c27.9-16.4,80.2-65,110.7-94.5
			c14-13.5,16.6-35.4,6.3-52L728.6,279.7z"/>
		<path id="vaina_blanca_de_los_lados_5_" fill="#FFFFFF" d="M175.4,377.4c-11.2,4.6-7.7,26-0.7,36.1c6.6,9.4,16.3,22,29.6,36
			c49.4,51.8,142.4,122.8,266.4,124.8c157.2,2.5,275.7-112.3,313.6-157.7c6.7-8.1,11-25.2,0.7-25.6c-47.2-1.8-203.1,35.4-250.1,53.2
			C397.3,496.5,240.8,350.2,175.4,377.4z"/>
	</g>
	<g>
		<path fill="#EDDFD9" d="M562.8,472.3c7.7,48.4-61.5,88.8-92.1,88.7c-41.2-0.1-100.3-40.4-92.1-88.7c8.1-48.4,53.6-88.7,92.1-88.7
			C511.2,383.6,554.9,423.2,562.8,472.3z"/>
		<path fill="#FFFFFF" d="M562.8,463.3c7.7,50.2-61.5,92.1-92.1,92c-41.2-0.1-100.3-41.9-92.1-92c8.1-50.2,53.6-92,92.1-92
			C511.2,371.3,554.9,412.4,562.8,463.3z"/>
		<path fill="#5E2200" d="M431.5,410.8c4.5-8.5,29.7-13.3,43.2-13.2c19.4,0.1,36.8,5,43.7,15.3c5.4,8.1-0.1,26.1-7.4,38.4
			c-8,13.6-22.5,32.4-36.1,32.4c-16.6,0-34.4-27.6-39.5-36.8C428.3,434.1,426.5,420.1,431.5,410.8z"/>
	</g>
	<g>
		<path fill="#F4F1ED" stroke="#EA7824" stroke-width="30" stroke-miterlimit="10" d="M317.9,151.4l-49.8,59.3
			c-3.6,4.2-10.3,2.2-11.1-3.3c0,0-6-28.9-8.2-46.5c-1.1-8.9-9.1-73.9-8.7-79.7c0.7-10.4-4.3-45.1,3.3-59.5c1.4-2.7,5.4-7.1,8-5.6
			c13.6-0.4,58.9,21.1,63.1,23.4c13.8,7.7,34.7,23.8,33.1,22.8l38.6,30.6c2.8,1.2-0.1,10.5-2.5,12.4l-63.7,43.9
			C319.3,149.9,318.6,150.6,317.9,151.4z"/>
		<path fill="#F4F1ED" stroke="#EA7824" stroke-width="30" stroke-miterlimit="10" d="M635.9,152.3l47.6,58.1c3.4,4.2,10,2,10.8-3.5
			c0,0,6.4-28.9,8.7-46.5c1.2-8.9,10.1-73.8,9.8-79.5c-0.5-10.3,4.9-45-2.2-59.2c-1.3-2.6-5.2-6.9-7.7-5.4
			c-13.2-0.1-57.8,22.1-61.9,24.4c-13.6,7.9-34.3,24.3-32.7,23.3l-38.1,31.1c-2.7,1.3-0.1,10.4,2.2,12.3l61.4,42.6
			C634.6,150.9,635.3,151.6,635.9,152.3z"/>
	</g>
	<g>
		<ellipse fill="#FF7893" cx="316.3" cy="402.3" rx="37.4" ry="19.1"/>
		<ellipse fill="#FF7893" cx="635.9" cy="402.3" rx="37.4" ry="19.1"/>
	</g>
	<g>
		<path fill="none" stroke="#FFFFFF" stroke-width="20" stroke-linecap="round" stroke-miterlimit="10" d="M379.8,228.2
			c0,0-50.3-4.1-87.8,43"/>
		<path fill="none" stroke="#FFFFFF" stroke-width="20" stroke-linecap="round" stroke-miterlimit="10" d="M563.3,230.5
			c0,0,50.1-6.7,89.7,38.5"/>
	</g>
	<g>
		<g>
			<path d="M401.4,361.7c0,0-1.8-0.7-4.9-2c-3.1-1.2-7.3-3-12.2-4.7c-2.5-0.9-5.1-1.8-7.8-2.6c-2.7-0.8-5.6-1.6-8.4-2.1l-1.1-0.2
				l-1.1-0.2c-0.7-0.1-1.4-0.3-2.2-0.4c-1.5-0.1-2.9-0.4-4.3-0.5c-0.7,0-1.4-0.2-2.2-0.1c-0.7,0-1.4,0-2.2,0
				c-0.7-0.1-1.4,0.1-2.1,0.1c-0.7,0-1.4,0-2.1,0.1l-2.1,0.2c-0.7,0.1-1.4,0.2-2.1,0.3l-1,0.2c-0.4,0-0.7,0.1-1,0.2
				c-0.7,0.2-1.4,0.4-2.1,0.5c-0.7,0.1-1.4,0.4-2.1,0.6c-0.7,0.2-1.4,0.4-2.1,0.6c-1.4,0.5-2.7,1.1-4,1.5c-1.3,0.6-2.6,1.2-3.9,1.8
				c-1.3,0.7-2.5,1.4-3.8,2c-1.3,0.6-2.4,1.4-3.6,2.1c-0.6,0.3-1.2,0.7-1.8,1c-0.6,0.4-1.1,0.7-1.7,1.1c-1.1,0.7-2.2,1.4-3.2,2
				c-1,0.7-2,1.4-2.9,2c-0.9,0.6-1.8,1.2-2.7,1.7c-0.8,0.5-1.5,1.1-2.2,1.5c-2.7,1.9-4.5,2.8-4.5,2.8s0.3-2,1.3-5.2
				c0.2-0.8,0.5-1.7,0.9-2.7c0.4-1,0.8-2,1.3-3.1c0.5-1.1,1-2.2,1.6-3.5c0.6-1.2,1.4-2.4,2.2-3.7c0.4-0.6,0.8-1.3,1.2-1.9
				c0.4-0.6,0.9-1.3,1.4-1.9c0.5-0.7,1-1.3,1.5-2c0.5-0.7,1-1.3,1.7-2c1.2-1.3,2.5-2.6,3.8-3.9c1.4-1.2,2.9-2.4,4.5-3.6
				c1.7-1.1,3.4-2.2,5.2-3.2c1.9-0.9,3.7-1.9,5.8-2.6c2-0.7,4.1-1.5,6.2-1.9c1.1-0.2,2.1-0.5,3.2-0.7l3.3-0.4
				c1.1-0.1,2.2-0.1,3.3-0.2l1.6,0c0.5,0,1.1,0,1.6,0.1c2.2,0.1,4.3,0.3,6.4,0.8c2.1,0.3,4.1,1,6.1,1.5c1,0.3,1.9,0.7,2.9,1
				c0.5,0.2,0.9,0.4,1.4,0.5c0.4,0.2,0.9,0.4,1.3,0.6c3.6,1.6,6.8,3.6,9.6,5.5c2.8,2.1,5.3,4.2,7.3,6.3c2.1,2.1,3.8,4.2,5.2,6.2
				c1.4,1.9,2.5,3.7,3.3,5.2C400.8,359.8,401.4,361.7,401.4,361.7z"/>
		</g>
		<g>
			<path d="M540.6,361.7c0,0,0.6-1.9,2.2-5c0.8-1.5,1.9-3.3,3.3-5.2c1.4-1.9,3.1-4,5.2-6.2c2.1-2.1,4.5-4.3,7.3-6.3
				c2.8-2,6-4,9.6-5.5c0.4-0.2,0.9-0.4,1.3-0.6c0.5-0.2,0.9-0.4,1.4-0.5c0.9-0.3,1.9-0.7,2.9-1c2-0.5,4-1.2,6.1-1.5
				c2.1-0.4,4.2-0.6,6.4-0.8c0.5-0.1,1.1-0.1,1.6-0.1l1.6,0c1.1,0,2.2,0,3.3,0.2l3.3,0.4c1.1,0.1,2.2,0.4,3.2,0.7
				c2.2,0.4,4.2,1.2,6.2,1.9c2,0.7,3.9,1.7,5.8,2.6c1.8,1,3.5,2.1,5.2,3.2c1.6,1.2,3.1,2.4,4.5,3.6c1.4,1.3,2.6,2.6,3.8,3.9
				c0.6,0.6,1.1,1.3,1.7,2c0.5,0.7,1,1.3,1.5,2c0.5,0.6,1,1.3,1.4,1.9c0.4,0.7,0.8,1.3,1.2,1.9c0.8,1.3,1.5,2.5,2.2,3.7
				c0.6,1.2,1.1,2.4,1.6,3.5c0.5,1.1,0.9,2.1,1.3,3.1c0.4,1,0.6,1.9,0.9,2.7c1,3.3,1.3,5.2,1.3,5.2s-1.8-1-4.5-2.8
				c-0.7-0.4-1.4-1-2.2-1.5c-0.9-0.5-1.7-1.1-2.7-1.7c-0.9-0.6-1.9-1.3-2.9-2c-1.1-0.6-2.1-1.3-3.2-2c-0.6-0.3-1.1-0.7-1.7-1.1
				c-0.6-0.3-1.2-0.7-1.8-1c-1.2-0.7-2.4-1.5-3.6-2.1c-1.3-0.6-2.5-1.3-3.8-2c-1.3-0.6-2.6-1.2-3.9-1.8c-1.4-0.5-2.7-1-4-1.5
				c-0.7-0.2-1.4-0.4-2.1-0.6c-0.7-0.2-1.4-0.5-2.1-0.6c-0.7-0.2-1.4-0.3-2.1-0.5c-0.3-0.1-0.7-0.2-1-0.2l-1-0.2
				c-0.7-0.1-1.4-0.3-2.1-0.3l-2.1-0.2c-0.7-0.1-1.4-0.1-2.1-0.1c-0.7,0-1.4-0.1-2.1-0.1c-0.7,0-1.4,0-2.2,0c-0.7,0-1.4,0.1-2.2,0.1
				c-1.4,0-2.9,0.3-4.3,0.5c-0.7,0.1-1.4,0.2-2.2,0.4l-1.1,0.2l-1.1,0.2c-2.9,0.5-5.7,1.4-8.4,2.1c-2.7,0.8-5.4,1.7-7.8,2.6
				c-4.9,1.8-9.2,3.5-12.2,4.7C542.4,361,540.6,361.7,540.6,361.7z"/>
		</g>
	</g>
</g>
<g id="Layer_3" display="none">
</g>
</svg>
